<svg width="40" height="40" viewBox="0 0 40 40" fill="none" xmlns="http://www.w3.org/2000/svg">
<path d="M38.4615 20C38.4615 9.82045 30.1803 1.53845 20 1.53845C9.81972 1.53845 1.53847 9.82045 1.53847 20C1.53847 25.2055 3.71263 29.9056 7.19023 33.265C7.27164 33.371 7.36808 33.4569 7.48094 33.5293C10.7752 36.5799 15.1666 38.4615 20 38.4615C24.8334 38.4615 29.2249 36.5799 32.5191 33.5293C32.6319 33.4569 32.7284 33.371 32.8098 33.265C36.2874 29.9056 38.4615 25.2055 38.4615 20ZM20 3.84614C28.9078 3.84614 36.1539 11.093 36.1539 20C36.1539 23.7768 34.8411 27.2474 32.6611 30.0013C31.6604 26.7739 28.8032 24.2473 24.9255 23.0847C27.0388 21.5554 28.421 19.0776 28.421 16.2778C28.421 11.6406 24.6439 7.86808 20 7.86808C15.3561 7.86808 11.579 11.6406 11.579 16.2778C11.579 19.0776 12.9612 21.5554 15.0745 23.0847C11.1968 24.2473 8.33966 26.7739 7.33887 30.0013C5.15889 27.2474 3.84616 23.7768 3.84616 20C3.84616 11.093 11.0923 3.84614 20 3.84614ZM13.8867 16.2778C13.8867 12.9132 16.6286 10.1758 20 10.1758C23.3714 10.1758 26.1133 12.9132 26.1133 16.2778C26.1133 19.6424 23.3714 22.3798 20 22.3798C16.6286 22.3798 13.8867 19.6424 13.8867 16.2778ZM9.2781 32.0492C9.62497 27.8185 14.1113 24.6875 20 24.6875C25.8887 24.6875 30.375 27.8185 30.7219 32.0492C27.8663 34.5931 24.1165 36.1538 20 36.1538C15.8835 36.1538 12.1337 34.5931 9.2781 32.0492Z" fill="white"/>
</svg>
