<?xml version="1.0" encoding="iso-8859-1"?>
<!-- Generator: Adobe Illustrator 19.0.0, SVG Export Plug-In . SVG Version: 6.00 Build 0)  -->
<svg version="1.1" id="Capa_1" xmlns="http://www.w3.org/2000/svg" xmlns:xlink="http://www.w3.org/1999/xlink" x="0px" y="0px"
	 viewBox="0 0 512 512" style="enable-background:new 0 0 512 512;" xml:space="preserve">
<g>
	<g>
		<path d="M390.582,149.324c-21.37-25.967-50.737-43.052-82.691-48.105c-27.086-4.284-54.4,0.606-76.906,13.771
			c-24.593,14.385-42.746,37.873-52.496,67.925c-12.094,37.273-8.049,72.528,11.389,99.269
			c15.336,21.099,39.135,34.556,62.784,35.724c0.1,0.005,0.2,0.011,0.3,0.015c1.014,0.046,2.027,0.077,3.04,0.077
			c31.079,0,56.884-22.988,61.32-52.853c4.814,17.241,3.949,37.024-2.78,57.767c-14.116,43.507-48.705,69.451-90.583,69.447
			c-5.441,0-11.014-0.439-16.672-1.334C156.398,382.979,105.052,336.869,105.052,252c0-127.066,77.462-190.916,123.636-217.666
			c4.779-2.769,6.408-8.887,3.64-13.666c-2.767-4.779-8.885-6.408-13.665-3.64C168.763,45.937,85.052,114.904,85.052,252
			c0,43.455,12.593,81.726,36.418,110.676c21.37,25.967,50.737,43.052,82.691,48.105c6.399,1.012,12.809,1.512,19.167,1.512
			c20.555,0,40.551-5.229,57.739-15.283c24.593-14.385,42.746-37.873,52.496-67.925c12.094-37.273,8.049-72.528-11.389-99.269
			c-15.371-21.146-39.242-34.617-62.943-35.733c-0.03-0.002-0.06-0.003-0.09-0.005c-1.031-0.047-2.061-0.08-3.09-0.08
			c-0.006,0-0.011,0.001-0.017,0.001c-0.011,0-0.023-0.001-0.034-0.001c-31.035,0-56.814,22.923-61.304,52.727
			c-4.775-17.211-3.897-36.948,2.816-57.641c15.95-49.16,58.051-75.899,107.255-68.113C355.653,129.021,407,175.131,407,260
			c0,125.087-75.524,188.925-120.543,215.845c-4.74,2.834-6.285,8.975-3.451,13.715c1.874,3.132,5.189,4.869,8.593,4.869
			c1.746,0,3.515-0.458,5.122-1.419C345.376,463.917,427,394.957,427,260C427,216.545,414.407,178.274,390.582,149.324z M256,214
			c23.159,0,42,18.841,42,42s-18.841,42-42,42s-42-18.841-42-42S232.841,214,256,214z"/>
	</g>
</g>
<g>
	<g>
		<path d="M265.614,498.49c-1.874-5.196-7.605-7.889-12.8-6.016l-0.214,0.077c-5.21,1.804-7.968,7.482-6.176,12.697
			c1.426,4.146,5.309,6.75,9.463,6.75c1.076,0,2.171-0.175,3.245-0.543l0.467-0.165C264.794,509.416,267.487,503.686,265.614,498.49
			z"/>
	</g>
</g>
<g>
	<g>
		<path d="M265.627,6.755c-1.793-5.22-7.488-7.996-12.706-6.208c0,0-0.229,0.078-0.67,0.238c-5.189,1.89-7.865,7.628-5.976,12.818
			c1.478,4.06,5.313,6.581,9.398,6.581c1.136,0,2.291-0.195,3.42-0.606l0.356-0.127C264.659,17.648,267.419,11.971,265.627,6.755z"
			/>
	</g>
</g>
<g>
	<g>
		<path d="M83.032,461.948l-32.979-32.981c-1.876-1.875-4.419-2.929-7.071-2.929c-2.652,0-5.195,1.054-7.071,2.929L2.929,461.948
			C1.054,463.823,0,466.367,0,469.019c0,2.652,1.054,5.196,2.929,7.071l32.981,32.981c1.876,1.875,4.419,2.929,7.071,2.929
			c2.652,0,5.195-1.054,7.071-2.929l32.98-32.981C86.937,472.185,86.937,465.853,83.032,461.948z M42.981,487.858l-18.839-18.839
			l18.839-18.839l18.839,18.839L42.981,487.858z"/>
	</g>
</g>
<g>
	<g>
		<path d="M509.071,35.91L476.09,2.929C474.214,1.054,471.671,0,469.019,0s-5.195,1.054-7.071,2.929l-32.98,32.981
			c-3.905,3.905-3.905,10.237,0,14.142l32.98,32.981c1.876,1.875,4.419,2.929,7.071,2.929c2.652,0,5.195-1.054,7.071-2.929
			l32.981-32.981c1.875-1.875,2.929-4.419,2.929-7.071C512,40.329,510.946,37.785,509.071,35.91z M469.019,61.82L450.18,42.981
			l18.839-18.839l18.839,18.839L469.019,61.82z"/>
	</g>
</g>
<g>
	<g>
		<path d="M472,438h-14v-14.387c0-5.523-4.478-10-10-10c-5.522,0-10,4.477-10,10V438h-14c-5.522,0-10,4.477-10,10s4.478,10,10,10h14
			v14.387c0,5.523,4.478,10,10,10c5.522,0,10-4.477,10-10V458h14c5.522,0,10-4.477,10-10S477.522,438,472,438z"/>
	</g>
</g>
<g>
	<g>
		<path d="M88,54H74V39.613c0-5.523-4.478-10-10-10c-5.522,0-10,4.477-10,10V54H40c-5.522,0-10,4.477-10,10s4.478,10,10,10h14
			v14.387c0,5.523,4.478,10,10,10c5.522,0,10-4.477,10-10V74h14c5.522,0,10-4.477,10-10S93.522,54,88,54z"/>
	</g>
</g>
<g>
	<g>
		<path d="M44.6,210.41c-1.87-1.87-4.439-2.93-7.08-2.93c-2.63,0-5.21,1.06-7.069,2.93c-1.86,1.86-2.931,4.43-2.931,7.07
			c0,2.63,1.07,5.21,2.931,7.07c1.868,1.86,4.439,2.93,7.069,2.93s5.21-1.07,7.08-2.93c1.86-1.87,2.92-4.44,2.92-7.07
			C47.52,214.84,46.46,212.27,44.6,210.41z"/>
	</g>
</g>
<g>
	<g>
		<path d="M476.089,291.76c-1.861-1.86-4.44-2.93-7.07-2.93c-2.639,0-5.209,1.07-7.069,2.93c-1.86,1.87-2.931,4.44-2.931,7.07
			c0,2.64,1.07,5.21,2.931,7.07c1.859,1.87,4.439,2.93,7.069,2.93s5.21-1.06,7.07-2.93c1.86-1.86,2.93-4.43,2.93-7.07
			C479.019,296.2,477.95,293.62,476.089,291.76z"/>
	</g>
</g>
<g>
	<g>
		<path d="M85.309,394.675c-1.943-2.411-3.832-4.92-5.615-7.455c-3.176-4.519-9.415-5.606-13.932-2.432
			c-4.519,3.176-5.607,9.413-2.432,13.932c2.034,2.894,4.191,5.757,6.411,8.51c1.976,2.45,4.87,3.723,7.79,3.723
			c2.204,0,4.423-0.725,6.271-2.216C88.101,405.27,88.776,398.974,85.309,394.675z"/>
	</g>
</g>
<g>
	<g>
		<path d="M62.45,354.191c-1.064-2.905-2.055-5.896-2.942-8.889c-1.569-5.295-7.138-8.314-12.43-6.745
			c-5.295,1.57-8.314,7.135-6.744,12.43c1.006,3.393,2.129,6.786,3.337,10.084c1.484,4.051,5.313,6.563,9.391,6.563
			c1.143,0,2.305-0.197,3.439-0.613C61.687,365.121,64.351,359.376,62.45,354.191z"/>
	</g>
</g>
<g>
	<g>
		<path d="M53.231,308.287c-0.166-3.103-0.25-6.284-0.25-9.454c0-5.523-4.478-10-10-10c-5.522,0-10,4.477-10,10
			c0,3.525,0.094,7.065,0.279,10.523c0.285,5.333,4.698,9.466,9.977,9.466c0.18,0,0.362-0.005,0.543-0.014
			C49.296,318.513,53.527,313.803,53.231,308.287z"/>
	</g>
</g>
<g>
	<g>
		<path d="M308.11,414.511c-3.645-4.15-9.963-4.562-14.112-0.917c-2.348,2.061-4.778,4.063-7.226,5.95
			c-4.374,3.373-5.186,9.652-1.813,14.025c1.97,2.555,4.932,3.894,7.926,3.894c2.132,0,4.281-0.679,6.1-2.082
			c2.781-2.145,5.543-4.418,8.208-6.758C311.343,424.979,311.754,418.661,308.11,414.511z"/>
	</g>
</g>
<g>
	<g>
		<path d="M337.991,374.54c-4.684-2.932-10.854-1.509-13.782,3.173c-1.682,2.688-3.44,5.339-5.229,7.881
			c-3.177,4.518-2.091,10.755,2.427,13.933c1.751,1.229,3.758,1.82,5.745,1.82c3.146,0,6.241-1.48,8.188-4.248
			c1.993-2.834,3.953-5.788,5.824-8.778C344.093,383.639,342.673,377.469,337.991,374.54z"/>
	</g>
</g>
<g>
	<g>
		<path d="M120.04,425.67c-2.622-1.671-5.224-3.448-7.732-5.281c-4.457-3.26-10.714-2.287-13.974,2.171s-2.288,10.715,2.171,13.975
			c2.851,2.084,5.808,4.104,8.787,6.003c1.666,1.061,3.525,1.568,5.364,1.568c3.304,0,6.537-1.636,8.443-4.628
			C126.067,434.819,124.697,428.638,120.04,425.67z"/>
	</g>
</g>
<g>
	<g>
		<path d="M267.623,443.643c-2.115-5.104-7.969-7.524-13.067-5.409c-2.856,1.185-5.794,2.289-8.732,3.283
			c-5.231,1.77-8.037,7.446-6.268,12.677c1.41,4.169,5.302,6.798,9.472,6.798c1.063,0,2.144-0.171,3.206-0.53
			c3.357-1.136,6.716-2.398,9.982-3.752C267.318,454.595,269.738,448.744,267.623,443.643z"/>
	</g>
</g>
<g>
	<g>
		<path d="M162.844,444.253c-3.018-0.781-6.045-1.666-8.997-2.629c-5.25-1.714-10.896,1.152-12.609,6.403
			c-1.715,5.25,1.152,10.896,6.402,12.61c3.346,1.092,6.775,2.095,10.194,2.979c0.84,0.217,1.683,0.321,2.512,0.321
			c4.449,0,8.509-2.991,9.675-7.498C171.403,451.092,168.19,445.637,162.844,444.253z"/>
	</g>
</g>
<g>
	<g>
		<path d="M219.879,458.05c-0.352-5.512-5.128-9.702-10.616-9.343c-3.058,0.195-6.17,0.293-9.249,0.293h-0.106
			c-5.522,0-10,4.477-10,10s4.478,10,10,10h0.106c3.502,0,7.042-0.112,10.521-0.334C216.047,468.314,220.23,463.562,219.879,458.05z
			"/>
	</g>
</g>
<g>
	<g>
		<path d="M471.666,161.014c-1.006-3.394-2.129-6.787-3.337-10.085c-1.9-5.186-7.646-7.851-12.83-5.949
			c-5.186,1.9-7.85,7.645-5.949,12.83c1.064,2.905,2.055,5.896,2.942,8.889c1.288,4.347,5.27,7.16,9.583,7.16
			c0.941,0,1.898-0.134,2.847-0.415C470.217,171.874,473.236,166.309,471.666,161.014z"/>
	</g>
</g>
<g>
	<g>
		<path d="M448.668,113.281c-2.033-2.895-4.19-5.758-6.41-8.511c-3.467-4.299-9.765-4.974-14.062-1.507
			c-4.299,3.467-4.974,9.763-1.507,14.062c1.944,2.412,3.834,4.92,5.616,7.456c1.947,2.77,5.044,4.251,8.19,4.251
			c1.986,0,3.993-0.591,5.741-1.819C450.755,124.037,451.843,117.8,448.668,113.281z"/>
	</g>
</g>
<g>
	<g>
		<path d="M478.74,202.644c-0.296-5.515-5.022-9.758-10.52-9.452c-5.516,0.295-9.747,5.005-9.451,10.521
			c0.166,3.103,0.25,6.284,0.25,9.454c0,5.523,4.478,10,10,10c5.522,0,10-4.477,10-10
			C479.019,209.642,478.925,206.102,478.74,202.644z"/>
	</g>
</g>
<g>
	<g>
		<path d="M411.495,75.465c-2.851-2.084-5.808-4.104-8.787-6.003c-4.659-2.968-10.84-1.598-13.808,3.06
			c-2.967,4.659-1.597,10.84,3.06,13.808c2.622,1.671,5.224,3.448,7.732,5.281c1.779,1.301,3.846,1.928,5.894,1.928
			c3.082,0,6.122-1.42,8.08-4.099C416.926,84.982,415.954,78.725,411.495,75.465z"/>
	</g>
</g>
<g>
	<g>
		<path d="M190.592,112.473c-4.521-3.177-10.755-2.089-13.933,2.428c-1.993,2.834-3.953,5.788-5.824,8.778
			c-2.929,4.682-1.509,10.852,3.173,13.781c1.649,1.032,3.483,1.524,5.295,1.524c3.332,0,6.59-1.665,8.487-4.697
			c1.682-2.688,3.44-5.339,5.229-7.881C196.196,121.888,195.11,115.651,190.592,112.473z"/>
	</g>
</g>
<g>
	<g>
		<path d="M272.444,57.806c-1.769-5.231-7.444-8.036-12.677-6.268c-3.357,1.136-6.716,2.398-9.982,3.752
			c-5.102,2.115-7.522,7.966-5.407,13.067c1.595,3.851,5.317,6.174,9.24,6.174c1.276,0,2.574-0.246,3.826-0.765
			c2.856-1.185,5.794-2.289,8.732-3.283C271.407,68.713,274.213,63.037,272.444,57.806z"/>
	</g>
</g>
<g>
	<g>
		<path d="M364.36,51.364c-3.346-1.092-6.775-2.095-10.194-2.979c-5.346-1.383-10.803,1.83-12.187,7.177
			c-1.382,5.346,1.831,10.801,7.177,12.185c3.018,0.781,6.045,1.666,8.997,2.629c1.031,0.336,2.076,0.497,3.105,0.497
			c4.21,0,8.127-2.68,9.504-6.899C372.477,58.724,369.61,53.078,364.36,51.364z"/>
	</g>
</g>
<g>
	<g>
		<path d="M227.043,78.431c-3.374-4.373-9.656-5.185-14.027-1.812c-2.781,2.145-5.543,4.418-8.208,6.758
			c-4.15,3.644-4.561,9.962-0.917,14.112c1.977,2.251,4.74,3.402,7.519,3.402c2.343,0,4.695-0.818,6.594-2.485
			c2.348-2.061,4.778-4.063,7.226-5.95C229.604,89.083,230.416,82.804,227.043,78.431z"/>
	</g>
</g>
<g>
	<g>
		<path d="M312.093,43h-0.106c-3.502,0-7.042,0.112-10.521,0.334c-5.512,0.352-9.695,5.104-9.344,10.616
			c0.337,5.296,4.737,9.364,9.97,9.364c0.214,0,0.43-0.007,0.646-0.021c3.058-0.195,6.17-0.293,9.249-0.293h0.106
			c5.522,0,10-4.477,10-10S317.615,43,312.093,43z"/>
	</g>
</g>
<g>
</g>
<g>
</g>
<g>
</g>
<g>
</g>
<g>
</g>
<g>
</g>
<g>
</g>
<g>
</g>
<g>
</g>
<g>
</g>
<g>
</g>
<g>
</g>
<g>
</g>
<g>
</g>
<g>
</g>
</svg>
