<?xml version="1.0" encoding="iso-8859-1"?>
<!-- Generator: Adobe Illustrator 19.0.0, SVG Export Plug-In . SVG Version: 6.00 Build 0)  -->
<svg version="1.1" id="Capa_1" xmlns="http://www.w3.org/2000/svg" xmlns:xlink="http://www.w3.org/1999/xlink" x="0px" y="0px"
	 viewBox="0 0 512 512" style="enable-background:new 0 0 512 512;" xml:space="preserve">
<g>
	<g>
		<path d="M511.449,382.703l-9.515-48.253c-3.823-19.39-13.242-37.017-27.237-50.974l-16.708-16.66v-56.782
			c10.442-4.127,17.852-14.314,17.852-26.206c0-3.21-0.547-6.294-1.541-9.171c11.831-3.34,20.529-14.225,20.529-27.11
			c0-3.403-0.607-6.667-1.718-9.69c10.981-3.849,18.88-14.312,18.88-26.59c0-12.279-7.899-22.741-18.88-26.59
			c1.111-3.023,1.718-6.287,1.718-9.69c0-15.535-12.639-28.172-28.172-28.172h-56.461c5.183-6.261,7.676-14.661,6.171-23.194
			c-1.344-7.624-5.601-14.232-11.987-18.608c-6.385-4.376-14.086-5.961-21.678-4.463l-48.254,9.515
			c-19.391,3.824-37.017,13.243-50.973,27.238l-16.66,16.708h-56.782c-4.127-10.442-14.314-17.852-26.205-17.852
			c-3.21,0-6.294,0.547-9.171,1.541c-3.34-11.831-14.225-20.529-27.109-20.529c-3.403,0-6.667,0.607-9.69,1.718
			c-3.849-10.981-14.312-18.88-26.59-18.88c-12.279,0-22.741,7.9-26.59,18.881c-3.023-1.111-6.287-1.718-9.69-1.718
			c-15.534,0-28.172,12.638-28.172,28.172v56.461c-6.26-5.182-14.658-7.674-23.194-6.17c-7.624,1.344-14.232,5.601-18.608,11.987
			c-4.376,6.385-5.961,14.085-4.464,21.679l9.517,48.253c3.824,19.391,13.243,37.017,27.237,50.973l16.707,16.66v56.781
			c-10.443,4.127-17.854,14.315-17.854,26.206c0,3.211,0.547,6.294,1.541,9.172c-11.831,3.34-20.529,14.224-20.529,27.109
			c0,3.404,0.607,6.668,1.718,9.691c-10.982,3.849-18.88,14.312-18.88,26.59c0,12.279,7.899,22.741,18.88,26.589
			c-1.111,3.023-1.718,6.288-1.718,9.691c0,15.534,12.639,28.172,28.172,28.172h56.461c-5.182,6.261-7.675,14.66-6.17,23.193
			c1.344,7.624,5.601,14.232,11.986,18.607c4.816,3.301,10.38,5.014,16.083,5.014c1.857,0,3.73-0.183,5.597-0.55l48.254-9.516
			c19.389-3.823,37.016-13.242,50.973-27.237l16.66-16.708h56.782c4.127,10.443,14.314,17.854,26.206,17.854
			c3.21,0,6.294-0.547,9.171-1.541c3.341,11.831,14.226,20.528,27.109,20.528c3.403,0,6.668-0.607,9.691-1.718
			c3.848,10.982,14.311,18.88,26.589,18.88c12.279,0,22.742-7.899,26.59-18.88c3.023,1.111,6.288,1.718,9.691,1.718
			c15.534,0,28.171-12.639,28.171-28.172v-56.459c6.261,5.181,14.657,7.675,23.194,6.169c7.624-1.344,14.232-5.601,18.607-11.986
			S512.947,390.298,511.449,382.703z M212.003,131.825v-27.258V74.01h58.964c2.657,0,5.205-1.058,7.081-2.939l19.59-19.645
			c11.139-11.169,25.204-18.687,40.68-21.738l48.254-9.515c2.28-0.448,4.589,0.026,6.505,1.339s3.193,3.296,3.596,5.583
			c0.782,4.433-2.03,8.744-6.4,9.816l-20.053,4.917c-6.325,1.55-10.35,7.368-9.569,13.833c0.781,6.465,6.074,11.158,12.587,11.158
			h93.422c4.507,0,8.173,3.667,8.173,8.173c0,4.176-3.149,7.624-7.197,8.108l-55.346,0.064c-5.522,0-10,4.477-10,10
			c0,5.523,4.478,10,10,10l71.533-0.064c4.507,0,8.173,3.667,8.173,8.173s-3.666,8.173-8.173,8.173H412.29c-5.522,0-10,4.477-10,10
			c0,5.523,4.478,10,10,10h55.35c4.046,0.486,7.193,3.934,7.193,8.108c0,4.506-3.666,8.173-8.173,8.173h-54.37
			c-5.522,0-10,4.477-10,10s4.478,10,10,10h36.359c4.046,0.485,7.196,3.933,7.196,8.109c0,4.506-3.666,8.172-8.172,8.172H346.685
			c-21.156,0-41.035-8.25-55.973-23.231l-12.662-12.698c-1.876-1.881-4.424-2.939-7.081-2.939h-58.966V131.825z M51.425,214.362
			c-11.17-11.138-18.687-25.204-21.737-40.68l-9.516-48.253c-0.45-2.279,0.026-4.589,1.339-6.505s3.296-3.193,5.583-3.596
			c4.438-0.78,8.743,2.03,9.815,6.401l4.916,20.051c1.549,6.326,7.371,10.344,13.832,9.57c6.466-0.78,11.159-6.074,11.159-12.586
			V45.342c0-4.506,3.666-8.173,8.173-8.173c4.175,0,7.622,3.148,8.108,7.194l0.064,55.349c0,5.523,4.478,10,10,10s10-4.477,10-10
			V45.342c0-0.609-0.026-1.211-0.064-1.811V28.179c0-4.506,3.666-8.172,8.173-8.172c4.507,0,8.173,3.666,8.173,8.172v15.353
			c-0.038,0.599-0.064,1.202-0.064,1.811l0.064,54.37c0,5.523,4.478,10,10,10c5.522,0,10-4.477,10-10v-55.35
			c0.486-4.046,3.934-7.194,8.108-7.194c4.507,0,8.173,3.667,8.173,8.173c0,0-0.04,48.648,0,49.012v5.359c0,5.523,4.478,10,10,10
			s10-4.477,10-10V63.351c0.486-4.046,3.934-7.194,8.108-7.194c4.507,0,8.173,3.667,8.173,8.173v100.987
			c0,20.849-8.468,41.251-23.23,55.973l-12.698,12.662c-1.882,1.876-2.939,4.424-2.939,7.081v58.965h-19.999v-26.551
			c0-5.522-4.478-10-10-10c-5.522,0-10,4.478-10,10v26.551H74.01v-58.965c0-2.657-1.058-5.205-2.939-7.081L51.425,214.362z
			 M300,437.989h-58.967v0.001c-2.657,0-5.205,1.058-7.081,2.938l-19.59,19.645c-11.139,11.171-25.205,18.688-40.68,21.737
			l-48.254,9.516c-2.28,0.451-4.589-0.025-6.505-1.339c-1.916-1.314-3.193-3.296-3.596-5.583c-0.782-4.432,2.03-8.743,6.4-9.814
			l20.055-4.917c6.324-1.551,10.348-7.368,9.566-13.833c-0.78-6.465-6.074-11.157-12.586-11.157h-93.42
			c-4.507,0-8.173-3.666-8.173-8.173c0-4.177,3.151-7.626,7.2-8.109l55.344-0.063c5.522,0,10-4.478,10-10s-4.478-10-10-10
			l-71.533,0.063c-4.507,0-8.173-3.666-8.173-8.173c0-4.506,3.666-8.172,8.173-8.172h71.533c5.522,0,10-4.478,10-10s-4.478-10-10-10
			H44.369c-4.049-0.483-7.2-3.932-7.2-8.109c0-4.506,3.666-8.172,8.173-8.172h54.371c5.522,0,10-4.478,10-10s-4.478-10-10-10H63.357
			c-4.048-0.483-7.199-3.932-7.199-8.109c0-4.507,3.666-8.173,8.172-8.173h100.987c21.155,0,41.034,8.251,55.973,23.231
			l12.662,12.698c1.876,1.882,4.424,2.939,7.081,2.939H300V437.989z M300.305,338.868h-55.122l-9.731-9.759
			c-16.867-16.915-38.758-26.978-62.318-28.804v-55.122l9.759-9.731c16.649-16.602,26.903-38.968,28.789-62.319h55.136l9.731,9.759
			c16.867,16.915,38.759,26.977,62.319,28.804v55.123l-9.759,9.731C312.194,293.415,302.131,315.308,300.305,338.868z
			 M490.488,393.076c-1.313,1.916-3.296,3.193-5.584,3.597c-4.437,0.786-8.743-2.03-9.813-6.401l-4.917-20.054
			c-1.551-6.326-7.379-10.343-13.834-9.567c-6.465,0.781-11.157,6.074-11.157,12.586v93.422c0,4.507-3.666,8.173-8.172,8.173
			c-4.177,0-7.626-3.151-8.109-7.2l-0.063-55.343c0-5.522-4.478-10-10-10s-10,4.478-10,10l0.063,71.534
			c0,4.506-3.666,8.172-8.173,8.172c-4.506,0-8.172-3.666-8.172-8.172v-71.534c0-5.522-4.478-10-10-10s-10,4.478-10,10v55.343
			c-0.483,4.049-3.932,7.2-8.109,7.2c-4.507,0-8.173-3.666-8.173-8.173v-54.37c0-5.522-4.478-10-10-10s-10,4.478-10,10v36.362
			c-0.486,4.046-3.934,7.194-8.108,7.194c-4.507,0-8.173-3.666-8.173-8.173v-40.234V380.18v-33.495
			c0-21.155,8.251-41.034,23.231-55.974l12.698-12.662c1.882-1.876,2.939-4.424,2.939-7.081v-58.966h21.31h17.26v30.333
			c0,5.523,4.478,10,10,10s10-4.477,10-10v-30.333h20.554v58.966c0,2.657,1.058,5.205,2.938,7.081l19.645,19.59
			c11.171,11.139,18.688,25.205,21.737,40.681l9.516,48.253C492.277,388.851,491.802,391.161,490.488,393.076z"/>
	</g>
</g>
<g>
	<g>
		<path d="M414.505,272.88c-1.86-1.861-4.441-2.93-7.07-2.93c-2.63,0-5.21,1.069-7.069,2.93c-1.86,1.86-2.931,4.439-2.931,7.08
			c0,2.63,1.07,5.21,2.931,7.07c1.859,1.859,4.439,2.92,7.069,2.92s5.21-1.061,7.07-2.92c1.86-1.87,2.93-4.44,2.93-7.07
			S416.366,274.75,414.505,272.88z"/>
	</g>
</g>
<g>
	<g>
		<path d="M130.203,228.761c-1.86-1.87-4.44-2.93-7.07-2.93c-2.63,0-5.21,1.06-7.07,2.93c-1.859,1.86-2.93,4.43-2.93,7.07
			c0,2.63,1.07,5.21,2.93,7.07c1.86,1.86,4.44,2.93,7.07,2.93c2.63,0,5.21-1.07,7.07-2.93c1.859-1.86,2.93-4.44,2.93-7.07
			C133.133,233.191,132.063,230.621,130.203,228.761z"/>
	</g>
</g>
<g>
</g>
<g>
</g>
<g>
</g>
<g>
</g>
<g>
</g>
<g>
</g>
<g>
</g>
<g>
</g>
<g>
</g>
<g>
</g>
<g>
</g>
<g>
</g>
<g>
</g>
<g>
</g>
<g>
</g>
</svg>
