<?xml version='1.0' encoding='iso-8859-1'?>
<!DOCTYPE svg PUBLIC '-//W3C//DTD SVG 1.1//EN' 'http://www.w3.org/Graphics/SVG/1.1/DTD/svg11.dtd'>
<svg version="1.1" xmlns="http://www.w3.org/2000/svg" viewBox="0 0 482.854 482.854" xmlns:xlink="http://www.w3.org/1999/xlink" enable-background="new 0 0 482.854 482.854">
  <g>
    <path d="m161.794,199.616c0.523-0.411 1.042-0.768 1.557-1.101 2.602,9.934 10.571,17.875 20.876,20.166l1.721,.383c-2.603,1.585-6.634,1.321-8.07,1.058-2.167-0.409-4.254,1.01-4.67,3.175-0.417,2.169 1.003,4.266 3.173,4.683 0.374,0.072 1.943,0.347 4.067,0.347 3.149,0 7.519-0.604 11.018-3.369 2.22-1.754 4.921-5.099 5.181-11.074 0.388-8.925-5.8-18.723-14.715-23.298-8.3-4.26-17.442-3.261-25.08,2.74-1.737,1.365-2.039,3.879-0.674,5.616 1.365,1.737 3.879,2.039 5.616,0.674zm16.485-1.913c5.349,2.745 9.52,8.474 10.263,13.742l-2.579-.573c-7.526-1.672-13.312-7.57-15.016-14.895 2.857-0.105 5.368,0.718 7.332,1.726z"/>
    <path d="m432.867,276.195c-7.637-14.097-8.554-41.447-8.5-63.698 0.051-20.863-6.148-40.668-17.254-57.246 11.115-53.164 8.602-110.878-6.284-141.16-3.633-7.391-10.667-12.55-18.817-13.801-8.088-1.241-16.277,1.541-21.903,7.444-9.378,9.838-22.53,20.792-34.754,30.273-54.978-13.33-112.879-13.33-167.855,0-12.224-9.481-25.376-20.435-34.754-30.273-5.627-5.903-13.82-8.685-21.904-7.444-8.15,1.251-15.185,6.41-18.817,13.801-14.885,30.284-17.398,87.997-6.283,141.159-11.106,16.578-17.305,36.383-17.254,57.246 0.054,22.251-0.864,49.6-8.5,63.699-0.774,1.429-0.935,3.111-0.446,4.662 0.488,1.55 1.585,2.836 3.039,3.563 4.407,2.204 9.344,2.482 14.277,0.804 4.517-1.536 8.829-4.664 12.755-8.487-5.307,28.387-7.921,70.072 10.385,105.887 1.187,2.321 3.737,3.612 6.31,3.191 2.573-0.42 4.58-2.453 4.967-5.031 1.067-7.116 2.708-11.968 4.383-15.267 2.507,23.624 10.558,41.528 24.445,54.494 14.321,13.371 32.851,19.866 50.771,26.148 22.007,7.714 42.794,15.001 55.572,34.039 1.114,1.66 2.982,2.656 4.982,2.656s3.868-0.996 4.982-2.656c12.778-19.038 33.564-26.325 55.572-34.039 17.92-6.282 36.45-12.777 50.771-26.148 13.888-12.966 21.938-30.871 24.445-54.494 1.675,3.299 3.316,8.15 4.384,15.267 0.387,2.578 2.395,4.612 4.967,5.031 2.581,0.422 5.123-0.87 6.31-3.191 18.305-35.815 15.691-77.5 10.385-105.887 3.926,3.823 8.238,6.95 12.755,8.487 4.933,1.679 9.871,1.4 14.278-0.803 1.453-0.727 2.55-2.013 3.039-3.563 0.487-1.551 0.326-3.233-0.449-4.663zm-357.86-92.291l128.081-69.619 34.875,60.405c0.714,1.238 2.035,2 3.464,2s2.75-0.762 3.464-2l34.874-60.405 128.082,69.619c2.234,6.811 3.671,13.941 4.237,21.266l-120.827-55.877c-1.878-0.868-4.108-0.161-5.143,1.631l-44.687,77.401-44.688-77.401c-1.035-1.792-3.266-2.498-5.144-1.631l-120.825,55.877c0.565-7.325 2.003-14.455 4.237-21.266zm183.067-143.499l-16.647,28.835-16.647-28.835c11.09-0.534 22.204-0.534 33.294,0zm-165.281-21.02c1.932-3.931 5.529-6.567 9.868-7.233 4.279-0.658 8.432,0.751 11.398,3.863 23.542,24.698 67.836,54.723 69.71,55.989 2.746,1.855 6.475,1.133 8.331-1.613 1.855-2.746 1.133-6.475-1.613-8.331-0.196-0.133-8.88-6.019-20.479-14.589 15.127-3.204 30.452-5.38 45.849-6.521l22.105,38.289c0.715,1.238 2.035,2 3.464,2 1.429,0 2.75-0.762 3.464-2l22.106-38.289c15.397,1.14 30.722,3.317 45.849,6.521-11.6,8.57-20.283,14.457-20.48,14.589-2.745,1.855-3.467,5.585-1.612,8.331 1.854,2.745 5.584,3.469 8.33,1.613 1.874-1.266 46.168-31.292 69.711-55.989 2.965-3.111 7.12-4.521 11.397-3.863 4.34,0.666 7.937,3.302 9.868,7.233 12.91,26.264 15.604,75.625 7.23,123.409-7.813-8.439-17.13-15.623-27.702-21.139-8.163-4.258-15.876-8.532-22.48-12.304 3.136-35.201 36.19-45.788 37.691-46.249 2.111-0.641 3.305-2.873 2.666-4.985-0.641-2.115-2.878-3.31-4.987-2.67-0.441,0.134-10.937,3.372-21.554,12.121-8.585,7.074-18.649,19.042-21.365,37.414-8.188-4.803-13.394-8.062-13.494-8.125-2.807-1.762-6.51-0.915-8.271,1.891-1.763,2.806-0.916,6.51 1.891,8.272 0.201,0.126 20.391,12.775 44.354,25.275 17.284,9.017 30.755,23.096 39.037,39.909l-122.914-66.81c-1.905-1.035-4.289-0.365-5.374,1.514l-33.36,57.781-33.359-57.781c-1.084-1.879-3.471-2.551-5.375-1.514l-122.913,66.81c8.282-16.813 21.752-30.892 39.037-39.909 23.961-12.501 44.152-25.149 44.354-25.275 2.807-1.762 3.653-5.465 1.891-8.271-1.762-2.806-5.465-3.653-8.272-1.891-0.101,0.063-5.306,3.323-13.495,8.126-2.716-18.373-12.78-30.341-21.365-37.415-10.617-8.749-21.112-11.987-21.553-12.121-2.112-0.638-4.338,0.553-4.981,2.664-0.643,2.11 0.548,4.344 2.657,4.991 1.466,0.449 34.556,11.029 37.694,46.25-6.604,3.772-14.317,8.046-22.479,12.304-10.573,5.515-19.889,12.7-27.702,21.139-8.376-47.785-5.683-97.146 7.227-123.411zm205.218,415.449c-20.497,7.185-41.619,14.589-56.584,32.107-14.965-17.517-36.087-24.922-56.584-32.107-16.156-5.663-31.477-11.048-43.551-20.984l61.568-24.134 35.103,60.801c0.715,1.238 2.035,2 3.464,2s2.75-0.762 3.464-2l35.104-60.801 61.568,24.135c-12.076,9.935-27.396,15.32-43.552,20.983zm96.195-192.012c-1.396-2.882-4.815-4.159-7.758-2.899-2.945,1.26-4.382,4.611-3.263,7.613 0.25,0.67 22.484,61.548 5.413,114.063-6.082-13.249-14.688-14.68-15.936-14.819-1.674-0.185-3.344,0.339-4.609,1.445-1.267,1.106-2.011,2.693-2.051,4.374-0.598,24.663-6.369,42.342-18.043,55.167l-68.25-26.754c-1.842-0.721-3.936,0.011-4.924,1.724l-33.36,57.781-33.359-57.781c-0.99-1.713-3.082-2.446-4.924-1.724l-68.25,26.754c-11.674-12.825-17.445-30.504-18.042-55.166-0.041-1.681-0.785-3.267-2.051-4.374-1.267-1.106-2.939-1.629-4.61-1.445-1.247,0.139-9.847,1.569-15.928,14.803-7.962-24.58-7.23-50.667-4.805-69.684 3.241-25.415 10.143-44.179 10.211-44.363 1.119-3.001-0.317-6.35-3.26-7.611-2.945-1.26-6.36,0.013-7.759,2.894-4.813,9.901-15.48,26.433-24.475,30.569 5.423-16.14 6.317-38.533 6.313-59.274l121.152-56.027 46.325,80.237c0.714,1.238 2.035,2 3.464,2 1.429,0 2.75-0.762 3.464-2l46.325-80.237 121.152,56.027c-0.005,20.74 0.89,43.135 6.312,59.274-8.995-4.135-19.662-20.667-24.474-30.567z"/>
    <path d="m291.387,224.958c3.5,2.765 7.869,3.369 11.019,3.369 2.124,0 3.693-0.275 4.067-0.347 2.162-0.416 3.573-2.5 3.167-4.664-0.407-2.164-2.496-3.592-4.661-3.195-1.433,0.262-5.467,0.528-8.073-1.058l1.721-.383c10.305-2.291 18.274-10.231 20.876-20.165 0.515,0.333 1.032,0.689 1.556,1.1 1.738,1.365 4.252,1.062 5.617-0.674 1.364-1.737 1.063-4.252-0.674-5.616-7.638-6.001-16.778-7-25.079-2.741-8.915,4.575-15.104,14.373-14.716,23.298 0.259,5.977 2.96,9.322 5.18,11.076zm13.187-27.256c1.965-1.008 4.476-1.83 7.332-1.727-1.704,7.325-7.49,13.222-15.016,14.895l-2.578,.573c0.742-5.267 4.913-10.995 10.262-13.741z"/>
    <path d="m329.096,219.341c-1.563,1.562-1.563,4.095 0,5.657 17.316,17.317 25.653,37.624 24.778,60.356-0.213,5.527-0.974,10.541-1.907,14.8-0.698-2.778-1.559-5.77-2.616-8.854-2.686-7.83-9.777-13.024-18.068-13.232-8.305-0.201-15.658,4.618-18.762,12.301l-17.373,39.55c-4.416,10.053-14.363,16.549-25.344,16.549-8.371,0-16.3-3.862-21.508-10.274 9.057-2.303 16.492-9.072 19.484-18.279l2.44-7.514c2.273-6.995-1.321-14.545-8.186-17.189-13.289-5.119-27.927-5.119-41.215,0-6.864,2.644-10.459,10.194-8.187,17.188l2.441,7.514c2.991,9.207 10.427,15.976 19.483,18.279-5.208,6.412-13.137,10.275-21.507,10.275-10.98,0-20.928-6.496-25.344-16.549l-17.373-39.55c-3.103-7.683-10.485-12.518-18.763-12.301-8.291,0.208-15.383,5.402-18.068,13.232-1.058,3.084-1.918,6.076-2.616,8.854-0.934-4.259-1.695-9.272-1.907-14.799-0.875-22.732 7.462-43.039 24.779-60.356 1.562-1.562 1.562-4.095 0-5.657-1.563-1.562-4.095-1.562-5.657,0-23.733,23.733-27.837,49.36-27.102,66.679 0.796,18.738 7.175,31.778 7.446,32.324 0.8,1.609 2.574,2.486 4.339,2.147 1.765-0.34 3.086-1.816 3.231-3.607 0.009-0.108 0.918-10.927 5.054-22.989 1.928-5.623 6.792-7.731 10.701-7.829 3.927-0.1 8.936,1.778 11.161,7.34 0.017,0.041 0.034,0.082 0.052,0.123l17.398,39.607c4.504,10.254 13.48,17.616 24.04,20.252 6.3,11.361 20.854,18.873 37.006,18.873 16.152,0 30.705-7.512 37.006-18.873 10.56-2.635 19.536-9.998 24.039-20.252l17.398-39.607c0.019-0.041 0.035-0.082 0.052-0.123 2.225-5.562 7.211-7.441 11.16-7.34 3.909,0.098 8.772,2.206 10.7,7.829 4.137,12.062 5.046,22.881 5.055,22.987 0.142,1.792 1.463,3.27 3.229,3.611 1.771,0.343 3.541-0.538 4.341-2.148 0.271-0.546 6.651-13.586 7.447-32.324 0.736-17.319-3.368-42.946-27.102-66.679-1.562-1.564-4.095-1.564-5.655-0.002zm-106.413,96.1l-2.441-7.514c-0.959-2.951 0.558-6.136 3.454-7.251 5.717-2.203 11.724-3.304 17.731-3.304s12.015,1.101 17.733,3.304c2.895,1.115 4.412,4.3 3.452,7.251l-2.441,7.514c-2.646,8.146-10.179,13.618-18.744,13.618-8.565,5.68434e-14-16.098-5.473-18.744-13.618zm18.744,48.819c-10.67,0-20.384-3.786-26.339-9.861 10.385-0.603 20.056-5.785 26.339-14.013 6.283,8.228 15.953,13.41 26.339,14.013-5.955,6.075-15.669,9.861-26.339,9.861z"/>
    <path d="m237.962,270.142c0.714,1.238 2.035,2 3.464,2s2.75-0.762 3.464-2l36.823-63.781c1.104-1.913 0.449-4.36-1.464-5.464-1.913-1.105-4.36-0.449-5.464,1.464l-33.36,57.781-33.36-57.781c-1.104-1.913-3.55-2.569-5.464-1.464-1.913,1.104-2.569,3.551-1.464,5.464l36.825,63.781z"/>
    <path d="m260.043,376.167c-1.913-1.105-4.36-0.449-5.464,1.464l-13.153,22.781-13.152-22.781c-1.104-1.913-3.55-2.569-5.464-1.464-1.913,1.104-2.569,3.551-1.464,5.464l16.616,28.781c0.715,1.238 2.035,2 3.464,2s2.75-0.762 3.464-2l16.616-28.781c1.105-1.913 0.45-4.36-1.463-5.464z"/>
    <path d="m237.962,206.507c0.714,1.238 2.035,2 3.464,2s2.75-0.762 3.464-2l36.823-63.781c1.104-1.913 0.449-4.36-1.464-5.464-1.913-1.105-4.36-0.449-5.464,1.464l-33.36,57.781-33.36-57.781c-1.104-1.913-3.55-2.569-5.464-1.464-1.913,1.104-2.569,3.551-1.464,5.464l36.825,63.781z"/>
    <path d="m237.962,142.872c0.715,1.238 2.035,2 3.464,2s2.75-0.762 3.464-2l39.892-69.094c1.104-1.913 0.449-4.36-1.464-5.464-1.913-1.105-4.359-0.449-5.464,1.464l-36.428,63.094-36.428-63.094c-1.104-1.912-3.549-2.569-5.464-1.464-1.913,1.104-2.569,3.551-1.464,5.464l39.892,69.094z"/>
    <path d="m237.962,111.054c0.715,1.238 2.035,2 3.464,2s2.75-0.762 3.464-2l28.741-49.781c1.104-1.913 0.449-4.359-1.464-5.464-1.912-1.105-4.36-0.449-5.464,1.464l-25.278,43.781-25.277-43.781c-1.104-1.912-3.549-2.569-5.464-1.464-1.913,1.104-2.569,3.551-1.464,5.464l28.742,49.781z"/>
  </g>
</svg>
