<?xml version="1.0" encoding="utf-8"?>
<!-- Generator: Adobe Illustrator 22.0.1, SVG Export Plug-In . SVG Version: 6.00 Build 0)  -->
<svg version="1.1" id="Layer_1" xmlns="http://www.w3.org/2000/svg" xmlns:xlink="http://www.w3.org/1999/xlink" x="0px" y="0px"
	 viewBox="0 0 139 139" style="enable-background:new 0 0 139 139;" xml:space="preserve">
<style type="text/css">
	.Drop_x0020_Shadow{fill:none;}
	.Round_x0020_Corners_x0020_2_x0020_pt{fill:#FFFFFF;stroke:#231F20;stroke-miterlimit:10;}
	.Live_x0020_Reflect_x0020_X{fill:none;}
	.Bevel_x0020_Soft{fill:url(#SVGID_1_);}
	.Dusk{fill:#FFFFFF;}
	.Foliage_GS{fill:#FFDD00;}
	.Pompadour_GS{fill-rule:evenodd;clip-rule:evenodd;fill:#44ADE2;}
	.st0{fill:url(#SVGID_2_);}
	.st1{fill:url(#SVGID_3_);}
	.st2{fill:url(#SVGID_4_);}
</style>
<linearGradient id="SVGID_1_" gradientUnits="userSpaceOnUse" x1="-229.7742615" y1="-351.7742615" x2="-229.0671539" y2="-351.0671387">
	<stop  offset="0" style="stop-color:#DEDFE3"/>
	<stop  offset="0.1783311" style="stop-color:#DADBDF"/>
	<stop  offset="0.3611409" style="stop-color:#CECFD3"/>
	<stop  offset="0.546043" style="stop-color:#B9BCBF"/>
	<stop  offset="0.7323959" style="stop-color:#9CA0A2"/>
	<stop  offset="0.9181451" style="stop-color:#787D7E"/>
	<stop  offset="1" style="stop-color:#656B6C"/>
</linearGradient>
<g>
	<linearGradient id="SVGID_2_" gradientUnits="userSpaceOnUse" x1="129.5584259" y1="148.8054657" x2="-4.1954265" y2="-26.702219">
		<stop  offset="0" style="stop-color:#A51FAE"/>
		<stop  offset="1" style="stop-color:#0088E8"/>
	</linearGradient>
	<path class="st0" d="M129.370636,35.2165527c-0.1893463,4.1157417-1.0531921,8.6338425-3.0024033,13.0186958
		c2.4843979,6.6221275,3.8517685,13.7856789,3.8517685,21.2647514c0,33.4811707-27.2388306,60.7200012-60.7200012,60.7200012
		S8.7799997,102.9811707,8.7799997,69.5c0-17.5047073,7.4550657-33.2933426,19.3456039-44.3848038
		c-0.9903584-1.2036266-2.9464817-3.8932953-4.0763226-7.5072041C9.6216116,30.2549019,0.5,48.8067398,0.5,69.5
		c0,38.1076736,30.8923244,69,69,69s69-30.8923264,69-69C138.5,57.0169144,135.1682587,45.3189201,129.370636,35.2165527z"/>
	<linearGradient id="SVGID_3_" gradientUnits="userSpaceOnUse" x1="134.7388306" y1="144.8574982" x2="0.9849866" y2="-30.6501961">
		<stop  offset="0" style="stop-color:#A51FAE"/>
		<stop  offset="1" style="stop-color:#0088E8"/>
	</linearGradient>
	<path class="st1" d="M32.8851891,13.00844c4.7407188,3.6593914,4.1464043,2.4439745,8.2645035,3.8435993
		c8.215313,2.792429,8.5643539,12.1017857,8.5643539,12.1017857c-6.5550003-4.4185448-10.6316605-2.6341629-11.8309059-2.0188732
		c-0.1494217,0.0767307-0.1083145,0.282671,0.0545807,0.3243637c2.4040527,0.6163006,2.7638741,2.6995239,2.7638741,2.6995239
		s-2.0371513,0.3429775-6.5298996,2.2435951c-4.2909355,1.8152084-7.0270157,5.3375587-7.7882729,6.4111366
		c-0.0904617,0.1276054,0.0244255,0.2900848,0.1802483,0.2761002c4.1519604-0.3726273,5.6241074,1.2208939,5.6241074,1.2208939
		s-3.5776901,1.5525017-8.148941,5.7213058c-6.8012829,6.2024193-9.446228,14.2386627-10.096303,16.552166
		c-0.0720997,0.2565613,0.1886721,0.4730301,0.4312496,0.3628578c0.95751-0.4343681,2.7170439-1.135231,2.665328-0.3917465
		c-0.0252686,0.36092-3.0180769,18.0055313,5.942152,33.2862701c11.4506969,19.5279541,32.207634,24.9893341,36.4950409,25.9304199
		c0.3163605,0.0694046,0.5705605-0.2495728,0.4287224-0.5408325c-1.2182808-2.5018387-7.0559921-13.8187866-6.6722488-26.6403809
		c0.4827995-16.1409683,8.8146858-26.3038101,10.5225029-28.9225616c0.1691284-0.2592545-0.03302-0.593895-0.3416328-0.5725861
		l-5.8055344,2.0682373c-0.1322365,0.047081-0.2718887-0.0362244-0.2811546-0.1762924
		c-0.1468925-2.2514267-0.22472-18.0639,25.85849-23.8765945c1.2122192-0.2702065,3.7997208-6.537735,10.23983-7.9177361
		c8.8716202-1.9010353,24.103508-2.702301,24.2362518-0.1149712c0.1725006,3.3637505,3.0514297,3.670681,2.443634,5.2324448
		c-1.6434631,4.2237244-4.0123062,7.5032463-6.8865204,10.0917549c-0.6741638,0.6072044-1.3761292,1.1763344-2.1030197,1.7107658
		c-5.187294,3.8133621-11.6459351,5.8577576-18.344635,7.3208885c-6.7190781,1.467514-26.1822662,9.8930626-29.9698524,32.6588478
		c-2.1400757,12.8646469,6.0086937,27.8685226,7.2642021,30.0824661c0.1025925,0.1808395,0.2742538,0.2928696,0.4814529,0.311142
		c2.9645081,0.2612762,25.847374,1.4100723,43.1201172-23.1951828c11.8282089-16.849411,9.2103882-35.3493614,7.7650223-41.8454857
		c-0.1027527-0.461319-0.7718658-0.4291458-0.8314972,0.0396729c-0.5848846,4.5793343-2.7992554,14.9029732-11.1739273,25.2497673
		c-13.5282822,16.7138901-25.1652908,20.5187454-25.1652908,20.5187454
		c-0.6704559-9.0507736-1.6262817-26.5847092,26.7659683-43.636776c6.3272476-3.8000526,9.9436798-8.7157974,11.9414139-13.6257286
		c1.0624619-2.6106644,1.6670532-5.2196426,1.978363-7.6583939c0.6930313-5.427433-3.0361023-9.0652637-8.4642944-9.7524834
		c-3.7714157-0.4774075-9.7863464,0.6457787-15.5772247,0.632555c-5.1217651-0.0117073-10.3855438,1.0968246-13.0001602-0.1293736
		c-5.497261-2.5781517-10.1515579-5.5048389-11.5564957-6.708971c-0.2023163-0.1735096-0.4480896-0.256897-0.714592-0.2470417
		c-1.2519684,0.0463257-5.0114288,0.3018742-8.386467,1.7114391c0,0-6.7931938-9.3649473-20.0851288-11.6317892
		C34.48452,9.8450699,31.3155079,2.3597655,31.3155079,2.3597655s-3.1573906,1.423799-3.9107304,8.4920025
		c-0.7268925,6.8192253,4.3194065,12.0989208,4.3194065,12.0989208C30.38731,17.0092945,32.8851891,13.00844,32.8851891,13.00844z
		 M69.5131378,32.5469284c2.2054443-1.4273357,3.277504-2.2862988,5.0944824-2.2485638
		c0.0117874,0.0305748,0.2526855,0.1816807,1.8210144,0.8803558c2.0983047,0.7039814,2.4190445,0.8453159,2.4190445,0.8453159
		s-0.1396484,0.4472542-0.5026779,1.1321182c-0.0586166,0.1106758-0.1644135,0.3055801-0.3065872,0.5451241
		c-0.4646072,0.7840843-1.316658,2.0467529-2.1666946,2.401104c0,0-2.6437683,0.6418228-5.9928589-0.2766914
		c-1.1505585-0.3155174-4.1314087-1.7991219-4.1314087-1.7991219C65.622963,33.8515434,68.0391388,33.5009003,69.5131378,32.5469284
		z"/>
	
		<linearGradient id="SVGID_4_" gradientUnits="userSpaceOnUse" x1="164.4381714" y1="122.2237244" x2="30.6843281" y2="-53.2839699">
		<stop  offset="0" style="stop-color:#A51FAE"/>
		<stop  offset="1" style="stop-color:#0088E8"/>
	</linearGradient>
	<path class="st2" d="M58.3580818,9.8405209C61.9731712,9.1620607,65.6908493,8.7799997,69.5,8.7799997
		c14.8659973,0,28.4934998,5.3784962,39.0601349,14.2806082c2.0228271-0.1671085,3.9530106-0.3181305,5.7410126-0.3181305
		c1.07341,0,2.0140686,0.0525589,2.8765717,0.163065c0.9056244,0.1145515,1.7743607,0.2960644,2.6131058,0.524744
		c0.2508316-0.1550636,0.4822922-0.3031387,0.6780396-0.4356289C107.8509293,9.1735153,89.6894073,0.5,69.5,0.5
		c-9.084549,0-17.7435799,1.7853076-25.6866646,4.9773998c1.2305794,0.4332714,2.6481438,0.8101101,4.277462,1.0878115
		C51.9925995,7.2307849,55.4153061,8.4242191,58.3580818,9.8405209z"/>
</g>
</svg>
